<?xml version="1.0" standalone="no"?><!DOCTYPE svg PUBLIC "-//W3C//DTD SVG 1.1//EN" "http://www.w3.org/Graphics/SVG/1.1/DTD/svg11.dtd"><svg t="1634547865437" class="icon" viewBox="0 0 1024 1024" version="1.1" xmlns="http://www.w3.org/2000/svg" p-id="2485" xmlns:xlink="http://www.w3.org/1999/xlink" width="128" height="128"><defs><style type="text/css"></style></defs><path d="M785.016608 412.849277v528.485301h119.458703V412.849277H785.016608zM127.993743 173.385774a16.792481 16.792481 0 0 0-17.065529 16.519432v16.519432c0 9.147124 7.645357 16.519432 17.065529 16.519432H648.492376c9.420172 0 17.065529-7.372309 17.065529-16.519432v-16.519432A16.792481 16.792481 0 0 0 648.492376 173.385774H127.993743z m0 132.155457a16.792481 16.792481 0 0 0-17.065529 16.519432v16.519432c0 9.078861 7.645357 16.519432 17.065529 16.519432H494.902615c9.420172 0 17.065529-7.440571 17.065529-16.519432v-16.519432a16.792481 16.792481 0 0 0-17.065529-16.519432H127.993743z m0 132.087194a16.792481 16.792481 0 0 0-17.065529 16.519432v16.519432c0 9.147124 7.645357 16.519432 17.065529 16.519432h170.655289c9.420172 0 17.065529-7.372309 17.065529-16.519432v-16.519432a16.792481 16.792481 0 0 0-17.065529-16.519432h-170.655289zM785.016608 330.388641h136.524231c37.680688 0 68.262116 29.557496 68.262116 66.009466v561.524165c0 36.520232-30.581428 66.077728-68.262116 66.077728h-196.253583c-1.433504 0-2.867009 0-4.300513-0.136524L716.754492 1023.931738H102.395449c-37.680688 0-68.262116-29.557496-68.262116-66.077728V66.077728C34.133333 29.557496 64.714761 0 102.395449 0h614.359043c37.680688 0 68.262116 29.557496 68.262116 66.077728v264.174389z m34.131058 611.014199H785.016608v-33.038864c0 18.294247 15.290714 33.038864 34.131058 33.038864z m85.327645-33.038864v33.038864h-34.131058c18.840344 0 34.131058-14.744617 34.131058-33.038864z" fill="#515B77" p-id="2486"></path></svg>